<svg width="540" height="395" viewBox="0 0 540 395" fill="none" xmlns="http://www.w3.org/2000/svg">
<path opacity="0.15" d="M464.126 90.6396L479.586 107.905" stroke="#135677" stroke-width="4" stroke-miterlimit="10" stroke-linecap="round" stroke-linejoin="round"/>
<g opacity="0.6">
<g opacity="0.15">
<path d="M112.168 203.552H2V471.999H112.168V203.552Z" stroke="#02283F" stroke-width="4" stroke-miterlimit="10" stroke-linecap="round" stroke-linejoin="round"/>
<path d="M25.9839 470.121V203.552" stroke="#02283F" stroke-width="4" stroke-miterlimit="10" stroke-linecap="round" stroke-linejoin="round"/>
<path d="M89.5562 470.121V203.552" stroke="#02283F" stroke-width="4" stroke-miterlimit="10" stroke-linecap="round" stroke-linejoin="round"/>
<path d="M57.77 470.121V203.552" stroke="#02283F" stroke-width="4" stroke-miterlimit="10" stroke-linecap="round" stroke-linejoin="round"/>
<path d="M2.14453 231.726H112.673" stroke="#02283F" stroke-width="4" stroke-miterlimit="10" stroke-linecap="round" stroke-linejoin="round"/>
<path d="M2.14453 245.452H112.673" stroke="#02283F" stroke-width="4" stroke-miterlimit="10" stroke-linecap="round" stroke-linejoin="round"/>
<path d="M2.14453 279.405H112.673" stroke="#02283F" stroke-width="4" stroke-miterlimit="10" stroke-linecap="round" stroke-linejoin="round"/>
<path d="M2.14453 294.576H112.673" stroke="#02283F" stroke-width="4" stroke-miterlimit="10" stroke-linecap="round" stroke-linejoin="round"/>
<path d="M2.14453 329.974H112.673" stroke="#02283F" stroke-width="4" stroke-miterlimit="10" stroke-linecap="round" stroke-linejoin="round"/>
<path d="M2.14453 345.144H112.673" stroke="#02283F" stroke-width="4" stroke-miterlimit="10" stroke-linecap="round" stroke-linejoin="round"/>
<path d="M2.14453 381.987H112.673" stroke="#02283F" stroke-width="4" stroke-miterlimit="10" stroke-linecap="round" stroke-linejoin="round"/>
<path d="M2.14453 396.436H112.673" stroke="#02283F" stroke-width="4" stroke-miterlimit="10" stroke-linecap="round" stroke-linejoin="round"/>
<path d="M89.9174 180.001H26.562V204.13H89.9174V180.001Z" stroke="#02283F" stroke-width="4" stroke-miterlimit="10" stroke-linecap="round" stroke-linejoin="round"/>
<path d="M75.1804 155.873H41.2993V180.002H75.1804V155.873Z" stroke="#02283F" stroke-width="4" stroke-miterlimit="10" stroke-linecap="round" stroke-linejoin="round"/>
</g>
<g opacity="0.15">
<path d="M463.981 471.35H419.336V202.541H537.089V471.35H502.414" stroke="#02283F" stroke-width="4" stroke-miterlimit="10" stroke-linecap="round" stroke-linejoin="round"/>
<path d="M448.811 227.175H434.579V252.171H448.811V227.175Z" stroke="#02283F" stroke-width="4" stroke-miterlimit="10" stroke-linecap="round" stroke-linejoin="round"/>
<path d="M473.156 227.175H458.924V252.171H473.156V227.175Z" stroke="#02283F" stroke-width="4" stroke-miterlimit="10" stroke-linecap="round" stroke-linejoin="round"/>
<path d="M497.501 227.175H483.27V252.171H497.501V227.175Z" stroke="#02283F" stroke-width="4" stroke-miterlimit="10" stroke-linecap="round" stroke-linejoin="round"/>
<path d="M521.919 227.175H507.687V252.171H521.919V227.175Z" stroke="#02283F" stroke-width="4" stroke-miterlimit="10" stroke-linecap="round" stroke-linejoin="round"/>
<path d="M448.811 264.74H434.579V289.736H448.811V264.74Z" stroke="#02283F" stroke-width="4" stroke-miterlimit="10" stroke-linecap="round" stroke-linejoin="round"/>
<path d="M473.156 264.74H458.924V289.736H473.156V264.74Z" stroke="#02283F" stroke-width="4" stroke-miterlimit="10" stroke-linecap="round" stroke-linejoin="round"/>
<path d="M497.501 264.74H483.27V289.736H497.501V264.74Z" stroke="#02283F" stroke-width="4" stroke-miterlimit="10" stroke-linecap="round" stroke-linejoin="round"/>
<path d="M521.919 264.74H507.687V289.736H521.919V264.74Z" stroke="#02283F" stroke-width="4" stroke-miterlimit="10" stroke-linecap="round" stroke-linejoin="round"/>
<path d="M448.811 336.259H434.579V357.642H448.811V336.259Z" stroke="#02283F" stroke-width="4" stroke-miterlimit="10" stroke-linecap="round" stroke-linejoin="round"/>
<path d="M473.156 336.259H458.924V357.642H473.156V336.259Z" stroke="#02283F" stroke-width="4" stroke-miterlimit="10" stroke-linecap="round" stroke-linejoin="round"/>
<path d="M497.501 336.259H483.27V357.642H497.501V336.259Z" stroke="#02283F" stroke-width="4" stroke-miterlimit="10" stroke-linecap="round" stroke-linejoin="round"/>
<path d="M521.919 336.259H507.687V357.642H521.919V336.259Z" stroke="#02283F" stroke-width="4" stroke-miterlimit="10" stroke-linecap="round" stroke-linejoin="round"/>
<path d="M434.146 311.191H521.558" stroke="#02283F" stroke-width="4" stroke-miterlimit="10" stroke-linecap="round" stroke-linejoin="round"/>
<path d="M434.146 322.75H521.558" stroke="#02283F" stroke-width="4" stroke-miterlimit="10" stroke-linecap="round" stroke-linejoin="round"/>
<path d="M434.146 371.874H521.558" stroke="#02283F" stroke-width="4" stroke-miterlimit="10" stroke-linecap="round" stroke-linejoin="round"/>
<path d="M434.146 384.155H521.558" stroke="#02283F" stroke-width="4" stroke-miterlimit="10" stroke-linecap="round" stroke-linejoin="round"/>
<path d="M434.146 396.436H521.558" stroke="#02283F" stroke-width="4" stroke-miterlimit="10" stroke-linecap="round" stroke-linejoin="round"/>
<path d="M521.557 176.823H441.659V202.541H521.557V176.823Z" stroke="#02283F" stroke-width="4" stroke-miterlimit="10" stroke-linecap="round" stroke-linejoin="round"/>
<path d="M504.292 151.105H458.924V176.823H504.292V151.105Z" stroke="#02283F" stroke-width="4" stroke-miterlimit="10" stroke-linecap="round" stroke-linejoin="round"/>
<path d="M480.38 150.816V110.361" stroke="#02283F" stroke-width="4" stroke-miterlimit="10" stroke-linecap="round" stroke-linejoin="round"/>
</g>
<g opacity="0.15">
<path d="M360.243 471.566H299.488V210.849L329.902 177.69L360.243 210.849V471.566Z" stroke="#02283F" stroke-width="4" stroke-miterlimit="10" stroke-linecap="round" stroke-linejoin="round"/>
<path d="M411.173 471.566H360.243V261.417C360.243 232.087 379.532 227.32 411.173 212.077V471.566Z" stroke="#02283F" stroke-width="4" stroke-miterlimit="10" stroke-linecap="round" stroke-linejoin="round"/>
<path d="M378.52 386.322V399.326" stroke="#02283F" stroke-width="4" stroke-miterlimit="10" stroke-linejoin="round"/>
<path d="M392.246 386.322V399.326" stroke="#02283F" stroke-width="4" stroke-miterlimit="10" stroke-linejoin="round"/>
<path d="M378.52 358.871V371.874" stroke="#02283F" stroke-width="4" stroke-miterlimit="10" stroke-linejoin="round"/>
<path d="M392.246 358.871V371.874" stroke="#02283F" stroke-width="4" stroke-miterlimit="10" stroke-linejoin="round"/>
<path d="M378.52 331.419V344.422" stroke="#02283F" stroke-width="4" stroke-miterlimit="10" stroke-linejoin="round"/>
<path d="M392.246 331.419V344.422" stroke="#02283F" stroke-width="4" stroke-miterlimit="10" stroke-linejoin="round"/>
<path d="M378.52 303.968V316.971" stroke="#02283F" stroke-width="4" stroke-miterlimit="10" stroke-linejoin="round"/>
<path d="M392.246 303.968V316.971" stroke="#02283F" stroke-width="4" stroke-miterlimit="10" stroke-linejoin="round"/>
<path d="M378.52 276.516V289.519" stroke="#02283F" stroke-width="4" stroke-miterlimit="10" stroke-linejoin="round"/>
<path d="M392.246 276.516V289.519" stroke="#02283F" stroke-width="4" stroke-miterlimit="10" stroke-linejoin="round"/>
<path d="M378.52 249.064V262.068" stroke="#02283F" stroke-width="4" stroke-miterlimit="10" stroke-linejoin="round"/>
<path d="M392.246 249.064V262.068" stroke="#02283F" stroke-width="4" stroke-miterlimit="10" stroke-linejoin="round"/>
<path d="M248.342 471.566H299.272V261.417C299.272 232.087 279.983 227.32 248.342 212.077V471.566Z" stroke="#02283F" stroke-width="4" stroke-miterlimit="10" stroke-linecap="round" stroke-linejoin="round"/>
<path d="M278.828 386.322V399.326" stroke="#02283F" stroke-width="4" stroke-miterlimit="10" stroke-linejoin="round"/>
<path d="M265.824 386.322V399.326" stroke="#02283F" stroke-width="4" stroke-miterlimit="10" stroke-linejoin="round"/>
<path d="M278.828 358.871V371.874" stroke="#02283F" stroke-width="4" stroke-miterlimit="10" stroke-linejoin="round"/>
<path d="M265.824 358.871V371.874" stroke="#02283F" stroke-width="4" stroke-miterlimit="10" stroke-linejoin="round"/>
<path d="M278.828 331.419V344.422" stroke="#02283F" stroke-width="4" stroke-miterlimit="10" stroke-linejoin="round"/>
<path d="M265.824 331.419V344.422" stroke="#02283F" stroke-width="4" stroke-miterlimit="10" stroke-linejoin="round"/>
<path d="M278.828 303.968V316.971" stroke="#02283F" stroke-width="4" stroke-miterlimit="10" stroke-linejoin="round"/>
<path d="M265.824 303.968V316.971" stroke="#02283F" stroke-width="4" stroke-miterlimit="10" stroke-linejoin="round"/>
<path d="M278.828 276.516V289.519" stroke="#02283F" stroke-width="4" stroke-miterlimit="10" stroke-linejoin="round"/>
<path d="M265.824 276.516V289.519" stroke="#02283F" stroke-width="4" stroke-miterlimit="10" stroke-linejoin="round"/>
<path d="M278.828 249.064V262.068" stroke="#02283F" stroke-width="4" stroke-miterlimit="10" stroke-linejoin="round"/>
<path d="M265.824 249.064V262.068" stroke="#02283F" stroke-width="4" stroke-miterlimit="10" stroke-linejoin="round"/>
<path d="M317.838 220.167V407.272" stroke="#02283F" stroke-width="4" stroke-miterlimit="10" stroke-linecap="round" stroke-linejoin="round"/>
<path d="M343.844 220.167V407.272" stroke="#02283F" stroke-width="4" stroke-miterlimit="10" stroke-linecap="round" stroke-linejoin="round"/>
<path d="M309.602 374.764H349.696" stroke="#02283F" stroke-width="4" stroke-miterlimit="10" stroke-linecap="round" stroke-linejoin="round"/>
<path d="M309.602 347.312H349.696" stroke="#02283F" stroke-width="4" stroke-miterlimit="10" stroke-linecap="round" stroke-linejoin="round"/>
<path d="M309.602 319.86H349.696" stroke="#02283F" stroke-width="4" stroke-miterlimit="10" stroke-linecap="round" stroke-linejoin="round"/>
<path d="M309.602 292.409H349.696" stroke="#02283F" stroke-width="4" stroke-miterlimit="10" stroke-linecap="round" stroke-linejoin="round"/>
<path d="M309.602 264.957H349.696" stroke="#02283F" stroke-width="4" stroke-miterlimit="10" stroke-linecap="round" stroke-linejoin="round"/>
<path d="M309.602 237.506H349.696" stroke="#02283F" stroke-width="4" stroke-miterlimit="10" stroke-linecap="round" stroke-linejoin="round"/>
</g>
<g opacity="0.15">
<path d="M236.855 177.69H130.589V471.35H236.855V177.69Z" stroke="#02283F" stroke-width="4" stroke-miterlimit="10" stroke-linecap="round" stroke-linejoin="round"/>
<path d="M157.246 199.507H144.748V407.994H157.246V199.507Z" stroke="#02283F" stroke-width="4" stroke-miterlimit="10" stroke-linecap="round" stroke-linejoin="round"/>
<path d="M179.352 199.507H166.854V407.994H179.352V199.507Z" stroke="#02283F" stroke-width="4" stroke-miterlimit="10" stroke-linecap="round" stroke-linejoin="round"/>
<path d="M201.529 199.507H189.032V407.994H201.529V199.507Z" stroke="#02283F" stroke-width="4" stroke-miterlimit="10" stroke-linecap="round" stroke-linejoin="round"/>
<path d="M223.635 199.507H211.138V407.994H223.635V199.507Z" stroke="#02283F" stroke-width="4" stroke-miterlimit="10" stroke-linecap="round" stroke-linejoin="round"/>
<path d="M223.635 147.926H189.032V177.69H223.635V147.926Z" stroke="#02283F" stroke-width="4" stroke-miterlimit="10" stroke-linecap="round" stroke-linejoin="round"/>
<path d="M205.142 147.927V121.92" stroke="#02283F" stroke-width="4" stroke-miterlimit="10" stroke-linecap="round" stroke-linejoin="round"/>
<path d="M176.173 158.257H143.375V177.69H176.173V158.257Z" stroke="#02283F" stroke-width="4" stroke-miterlimit="10" stroke-linecap="round" stroke-linejoin="round"/>
</g>
</g>
<path d="M147.565 88.1836H209.765" stroke="#CCE1EA" stroke-width="4" stroke-miterlimit="10" stroke-linecap="round" stroke-linejoin="round"/>
<path d="M190.332 104.149H205.43" stroke="#CCE1EA" stroke-width="4" stroke-miterlimit="10" stroke-linecap="round" stroke-linejoin="round"/>
<path d="M173.067 95.2637H200.952" stroke="#CCE1EA" stroke-width="4" stroke-miterlimit="10" stroke-linecap="round" stroke-linejoin="round"/>
<path d="M307.941 46.501V63.1886" stroke="#CCE1EA" stroke-width="4" stroke-miterlimit="10" stroke-linecap="round" stroke-linejoin="round"/>
<path d="M292.915 49.1738L298.622 64.8501" stroke="#CCE1EA" stroke-width="4" stroke-miterlimit="10" stroke-linecap="round" stroke-linejoin="round"/>
<path d="M279.623 56.7593L290.386 69.6182" stroke="#CCE1EA" stroke-width="4" stroke-miterlimit="10" stroke-linecap="round" stroke-linejoin="round"/>
<path d="M269.798 68.5342L284.318 76.8419" stroke="#CCE1EA" stroke-width="4" stroke-miterlimit="10" stroke-linecap="round" stroke-linejoin="round"/>
<path d="M264.596 82.8384L281.067 85.8003" stroke="#CCE1EA" stroke-width="4" stroke-miterlimit="10" stroke-linecap="round" stroke-linejoin="round"/>
<path d="M264.596 98.1533L281.067 95.2637" stroke="#CCE1EA" stroke-width="4" stroke-miterlimit="10" stroke-linecap="round" stroke-linejoin="round"/>
<path d="M269.798 112.529L284.318 104.149" stroke="#CCE1EA" stroke-width="4" stroke-miterlimit="10" stroke-linecap="round" stroke-linejoin="round"/>
<path d="M279.623 124.232L290.386 111.446" stroke="#CCE1EA" stroke-width="4" stroke-miterlimit="10" stroke-linecap="round" stroke-linejoin="round"/>
<path d="M292.915 131.89L298.622 116.142" stroke="#CCE1EA" stroke-width="4" stroke-miterlimit="10" stroke-linecap="round" stroke-linejoin="round"/>
<path d="M307.941 134.49V117.803" stroke="#CCE1EA" stroke-width="4" stroke-miterlimit="10" stroke-linecap="round" stroke-linejoin="round"/>
<path d="M322.967 131.89L317.26 116.142" stroke="#CCE1EA" stroke-width="4" stroke-miterlimit="10" stroke-linecap="round" stroke-linejoin="round"/>
<path d="M336.26 124.232L325.496 111.446" stroke="#CCE1EA" stroke-width="4" stroke-miterlimit="10" stroke-linecap="round" stroke-linejoin="round"/>
<path d="M346.084 112.529L331.563 104.149" stroke="#CCE1EA" stroke-width="4" stroke-miterlimit="10" stroke-linecap="round" stroke-linejoin="round"/>
<path d="M351.285 98.1533L334.814 95.2637" stroke="#CCE1EA" stroke-width="4" stroke-miterlimit="10" stroke-linecap="round" stroke-linejoin="round"/>
<path d="M351.285 82.8384L334.814 85.8003" stroke="#CCE1EA" stroke-width="4" stroke-miterlimit="10" stroke-linecap="round" stroke-linejoin="round"/>
<path d="M346.084 68.5342L331.563 76.8419" stroke="#CCE1EA" stroke-width="4" stroke-miterlimit="10" stroke-linecap="round" stroke-linejoin="round"/>
<path d="M336.26 56.7593L325.496 69.6182" stroke="#CCE1EA" stroke-width="4" stroke-miterlimit="10" stroke-linecap="round" stroke-linejoin="round"/>
<path d="M322.967 49.1738L317.26 64.8501" stroke="#CCE1EA" stroke-width="4" stroke-miterlimit="10" stroke-linecap="round" stroke-linejoin="round"/>
<path d="M307.941 105.522C316.239 105.522 322.967 98.7941 322.967 90.4954C322.967 82.1967 316.239 75.4692 307.941 75.4692C299.642 75.4692 292.915 82.1967 292.915 90.4954C292.915 98.7941 299.642 105.522 307.941 105.522Z" fill="#FFBF73"/>
<path d="M530.949 52.9298C531.021 52.4241 531.021 51.8462 531.021 51.3405C531.021 40.6489 522.352 32.0522 511.732 32.0522C507.615 32.0522 503.786 33.3525 500.68 35.5197C498.368 27.4287 490.927 21.5772 482.114 21.5772C480.596 21.5772 479.152 21.7217 477.707 22.0829C472.867 16.6648 465.787 13.1973 457.913 13.1973C444.404 13.1973 433.206 23.311 431.545 36.3866C431.256 36.3866 430.967 36.3144 430.606 36.3144C422.298 36.3144 415.58 43.0328 415.58 51.3405C415.58 51.8462 415.58 52.4241 415.652 52.9298H530.949Z" stroke="#CCE1EA" stroke-width="4" stroke-miterlimit="10" stroke-linecap="round" stroke-linejoin="round"/>
<path d="M84.8605 60.5875C81.6096 55.9641 76.1916 52.8577 70.0511 52.8577C68.6062 52.8577 67.2337 53.0022 65.9333 53.3634C61.3821 48.3065 54.736 45.0557 47.3674 45.0557C34.7252 45.0557 24.2502 54.5192 22.7332 66.728C22.4442 66.728 22.1553 66.6557 21.8663 66.6557C14.1365 66.6557 7.7793 72.9407 7.7793 80.7427C7.7793 81.2484 7.7793 81.7541 7.85154 82.2598H81.4651" stroke="#CCE1EA" stroke-width="4" stroke-miterlimit="10" stroke-linecap="round" stroke-linejoin="round"/>
<path d="M327.735 2H374.836" stroke="#CCE1EA" stroke-width="4" stroke-miterlimit="10" stroke-linecap="round" stroke-linejoin="round"/>
<path d="M353.236 13.1973H409.078" stroke="#CCE1EA" stroke-width="4" stroke-miterlimit="10" stroke-linecap="round" stroke-linejoin="round"/>
<path d="M132.467 82.2598C133.117 80.7428 133.478 79.0812 133.478 77.2752C133.478 70.5568 128.133 65.1387 121.486 65.1387C119.825 65.1387 118.236 65.4999 116.791 66.0778C114.118 58.926 107.255 53.7969 99.2362 53.7969C89.6282 53.7969 81.7539 61.021 80.6703 70.2678C79.8756 70.1233 79.081 69.9789 78.2863 69.9789C72.2181 69.9789 67.3779 74.7468 67.3779 80.5983C67.3779 81.104 67.4502 81.6819 67.5224 82.1876H132.467V82.2598Z" stroke="#CCE1EA" stroke-width="4" stroke-miterlimit="10" stroke-linecap="round" stroke-linejoin="round"/>
</svg>
