<svg width="37" height="39" viewBox="0 0 37 39" fill="none" xmlns="http://www.w3.org/2000/svg">
<path d="M15.8462 2.27857C17.0675 0.309521 19.9325 0.309521 21.1538 2.27857L21.6938 3.14919C22.4967 4.44373 24.1165 4.97003 25.527 4.39468L26.4756 4.00773C28.621 3.13259 30.9388 4.81656 30.7694 7.12741L30.6946 8.14916C30.5832 9.66841 31.5843 11.0463 33.0636 11.4099L34.0585 11.6544C36.3086 12.2075 37.1939 14.9322 35.6986 16.7022L35.0375 17.4848C34.0544 18.6484 34.0544 20.3516 35.0375 21.5152L35.6986 22.2978C37.1939 24.0678 36.3086 26.7925 34.0585 27.3456L33.0636 27.5901C31.5843 27.9537 30.5832 29.3316 30.6946 30.8508L30.7694 31.8726C30.9388 34.1834 28.621 35.8674 26.4756 34.9923L25.527 34.6053C24.1165 34.03 22.4967 34.5563 21.6938 35.8508L21.1538 36.7214C19.9325 38.6905 17.0675 38.6905 15.8462 36.7214L15.3062 35.8508C14.5033 34.5563 12.8835 34.03 11.473 34.6053L10.5244 34.9923C8.37901 35.8674 6.06123 34.1834 6.23057 31.8726L6.30544 30.8508C6.41676 29.3316 5.41568 27.9537 3.93638 27.5901L2.94151 27.3456C0.691425 26.7925 -0.193887 24.0678 1.30139 22.2978L1.96253 21.5152C2.94559 20.3516 2.94559 18.6484 1.96253 17.4848L1.30139 16.7022C-0.193887 14.9322 0.691425 12.2075 2.94151 11.6544L3.93638 11.4099C5.41567 11.0463 6.41676 9.66841 6.30544 8.14916L6.23057 7.12741C6.06123 4.81656 8.37901 3.13259 10.5244 4.00773L11.473 4.39468C12.8835 4.97003 14.5033 4.44373 15.3062 3.14919L15.8462 2.27857Z" fill="#2F861B" fill-opacity="0.8"/>
</svg>
