<svg width="41" height="41" viewBox="0 0 41 41" fill="none" xmlns="http://www.w3.org/2000/svg">
<path d="M19.9435 4.24154C11.5335 4.51654 4.4568 11.3182 3.87514 19.7132C3.26014 28.5949 9.6118 36.0999 18.0101 37.3615V25.3165H15.3201C14.1101 25.3165 13.1301 24.3365 13.1301 23.1265C13.1301 21.9165 14.1101 20.9365 15.3201 20.9365H18.0085V18.0215C18.0085 13.1949 20.3601 11.0765 24.3718 11.0765C24.9668 11.0765 25.4751 11.0899 25.9068 11.1115C26.9668 11.1632 27.7885 12.0465 27.7885 13.1082C27.7885 14.2132 26.8935 15.1082 25.7885 15.1082H25.0518C23.3485 15.1082 22.7535 16.7232 22.7535 18.5432V20.9382H25.8701C26.8551 20.9382 27.6085 21.8165 27.4585 22.7899L27.2785 23.9582C27.1568 24.7415 26.4835 25.3199 25.6901 25.3199H22.7535V37.3982C30.8918 36.2932 37.1668 29.3365 37.1668 20.8999C37.1668 11.5099 29.4018 3.93487 19.9435 4.24154Z" fill="#6D6E70"/>
</svg>
