<svg width="40" height="41" viewBox="0 0 40 41" fill="none" xmlns="http://www.w3.org/2000/svg">
<path d="M13.5 5.8999C9.01338 5.8999 5.375 9.63157 5.375 14.2332V27.5666C5.375 32.1682 9.01338 35.8999 13.5 35.8999H26.5C30.9866 35.8999 34.625 32.1682 34.625 27.5666V14.2332C34.625 9.63157 30.9866 5.8999 26.5 5.8999H13.5ZM29.75 9.23324C30.647 9.23324 31.375 9.9799 31.375 10.8999C31.375 11.8199 30.647 12.5666 29.75 12.5666C28.853 12.5666 28.125 11.8199 28.125 10.8999C28.125 9.9799 28.853 9.23324 29.75 9.23324ZM20 12.5666C24.4866 12.5666 28.125 16.2982 28.125 20.8999C28.125 25.5016 24.4866 29.2332 20 29.2332C15.5134 29.2332 11.875 25.5016 11.875 20.8999C11.875 16.2982 15.5134 12.5666 20 12.5666ZM20 15.8999C18.7071 15.8999 17.4671 16.4267 16.5529 17.3644C15.6386 18.302 15.125 19.5738 15.125 20.8999C15.125 22.226 15.6386 23.4978 16.5529 24.4354C17.4671 25.3731 18.7071 25.8999 20 25.8999C21.2929 25.8999 22.5329 25.3731 23.4471 24.4354C24.3614 23.4978 24.875 22.226 24.875 20.8999C24.875 19.5738 24.3614 18.302 23.4471 17.3644C22.5329 16.4267 21.2929 15.8999 20 15.8999Z" fill="#6D6E70"/>
</svg>
