<svg width="40" height="41" viewBox="0 0 40 41" fill="none" xmlns="http://www.w3.org/2000/svg">
<path d="M31.375 5.8999H8.625C6.82938 5.8999 5.375 7.39157 5.375 9.23324V32.5666C5.375 34.4082 6.82938 35.8999 8.625 35.8999H31.375C33.1706 35.8999 34.625 34.4082 34.625 32.5666V9.23324C34.625 7.39157 33.1706 5.8999 31.375 5.8999ZM13.0742 29.2332C11.9416 29.2332 11.0235 28.2916 11.0235 27.1299V19.6682C11.0251 18.5082 11.9432 17.5666 13.0742 17.5666C14.2069 17.5666 15.125 18.5082 15.125 19.6699V27.1316C15.125 28.2916 14.2069 29.2332 13.0742 29.2332ZM13.0027 15.4282C11.7499 15.4282 10.913 14.5716 10.913 13.4282C10.913 12.2849 11.7482 11.4282 13.1409 11.4282C14.3938 11.4282 15.2306 12.2849 15.2306 13.4282C15.2306 14.5716 14.3954 15.4282 13.0027 15.4282ZM27.7659 29.2332C26.6706 29.2332 25.7817 28.3216 25.7817 27.1982V22.8566C25.7817 21.0932 24.7239 20.8999 24.3274 20.8999C23.9309 20.8999 22.6081 20.9582 22.6081 22.8566V27.1982C22.6081 28.3216 21.7192 29.2332 20.624 29.2332H20.4924C19.3971 29.2332 18.5082 28.3216 18.5082 27.1982V19.6699C18.5082 18.5082 19.4264 17.5666 20.559 17.5666C21.6916 17.5666 22.6098 18.5082 22.6098 19.6699C22.6098 19.6699 23.068 17.5666 26.1815 17.5666C28.1624 17.5666 29.75 19.1949 29.75 22.8566V27.1982C29.75 28.3216 28.8611 29.2332 27.7659 29.2332Z" fill="#6D6E70"/>
</svg>
