<svg width="40" height="41" viewBox="0 0 40 41" fill="none" xmlns="http://www.w3.org/2000/svg">
<path d="M35.6553 7.61821C34.3309 8.25988 32.077 9.46321 30.9444 9.69321C30.9005 9.70488 30.8648 9.71988 30.8225 9.73155C29.5014 8.39488 27.6912 7.56655 25.6875 7.56655C21.6494 7.56655 18.375 10.9249 18.375 15.0665C18.375 15.2849 18.3572 15.6865 18.375 15.8999C13.1458 15.8999 9.32704 13.1015 6.46866 9.50488C6.08679 9.02155 5.68054 9.27321 5.59604 9.61655C5.40591 10.3932 5.34091 11.6915 5.34091 12.6182C5.34091 14.9532 7.12029 17.2465 9.89091 18.6682C9.38066 18.8032 8.81841 18.8999 8.23341 18.8999C7.54441 18.8999 6.75141 18.7149 6.05754 18.3415C5.80079 18.2032 5.24666 18.2415 5.41079 18.9149C6.06891 21.6132 9.07191 23.5082 11.7548 24.0599C11.1454 24.4282 9.84541 24.3532 9.24741 24.3532C9.02641 24.3532 8.25779 24.2999 7.76054 24.2365C7.30716 24.1799 6.61004 24.2999 7.19341 25.2065C8.44629 27.1515 11.2803 28.3732 13.7194 28.4199C11.4737 30.2265 7.80116 30.8865 4.28304 30.8865C3.57129 30.8699 3.60704 31.7015 4.18066 32.0099C6.77579 33.4065 11.0268 34.2332 14.0639 34.2332C26.1377 34.2332 33 24.7949 33 15.8982C33 15.7549 32.9968 15.4549 32.9919 15.1532C32.9919 15.1232 33 15.0949 33 15.0649C33 15.0199 32.987 14.9765 32.987 14.9315C32.9822 14.7049 32.9773 14.4932 32.9724 14.3832C33.9295 13.6749 35.3953 12.4449 36.1363 11.5032C36.3882 11.1832 36.185 10.7949 35.8422 10.9165C34.9598 11.2315 33.4339 11.8415 32.4784 11.9582C34.391 10.6599 35.3368 9.52988 36.1493 8.27488C36.4272 7.84655 36.0794 7.41155 35.6553 7.61821Z" fill="#6D6E70"/>
</svg>
