<svg width="41" height="41" viewBox="0 0 41 41" fill="none" xmlns="http://www.w3.org/2000/svg">
<path d="M36.4702 11.2099C36.0868 9.77653 34.9568 8.64653 33.5235 8.2632C30.9235 7.56653 20.5002 7.56653 20.5002 7.56653C20.5002 7.56653 10.0768 7.56653 7.47683 8.2632C6.0435 8.64653 4.9135 9.77653 4.53016 11.2099C3.8335 13.8099 3.8335 20.8999 3.8335 20.8999C3.8335 20.8999 3.8335 27.9899 4.53016 30.5899C4.9135 32.0232 6.0435 33.1532 7.47683 33.5365C10.0768 34.2332 20.5002 34.2332 20.5002 34.2332C20.5002 34.2332 30.9235 34.2332 33.5235 33.5365C34.9585 33.1532 36.0868 32.0232 36.4702 30.5899C37.1668 27.9899 37.1668 20.8999 37.1668 20.8999C37.1668 20.8999 37.1668 13.8099 36.4702 11.2099ZM17.1668 25.2299V16.5699C17.1668 15.9282 17.8618 15.5282 18.4168 15.8482L25.9168 20.1782C26.4718 20.4982 26.4718 21.3015 25.9168 21.6215L18.4168 25.9515C17.8618 26.2732 17.1668 25.8715 17.1668 25.2299Z" fill="#6D6E70"/>
</svg>
